<svg width="56" height="56" viewBox="0 0 56 56" fill="none" xmlns="http://www.w3.org/2000/svg">
<g filter="url(#filter0_dd_1_964)">
<circle cx="28" cy="20" r="16" fill="white"/>
<circle cx="28" cy="20" r="12.5" stroke="#60B2FF" stroke-width="3"/>
<path d="M28 32.5C34.9036 32.5 40.5 26.9036 40.5 20C40.5 13.0964 34.9036 7.5 28 7.5" stroke="#FF9D28" stroke-width="3"/>
<path d="M30.9062 25H25.0996V23.957L27.3086 21.7363C27.9609 21.0684 28.3926 20.5957 28.6035 20.3184C28.8184 20.0371 28.9746 19.7734 29.0723 19.5273C29.1699 19.2812 29.2187 19.0176 29.2187 18.7363C29.2187 18.3496 29.1016 18.0449 28.8672 17.8223C28.6367 17.5996 28.3164 17.4883 27.9063 17.4883C27.5781 17.4883 27.2598 17.5488 26.9512 17.6699C26.6465 17.791 26.293 18.0098 25.8906 18.3262L25.1465 17.418C25.6231 17.0156 26.0859 16.7305 26.5352 16.5625C26.9844 16.3945 27.4629 16.3105 27.9707 16.3105C28.7676 16.3105 29.4062 16.5195 29.8867 16.9375C30.3672 17.3516 30.6074 17.9102 30.6074 18.6133C30.6074 19 30.5371 19.3672 30.3965 19.7148C30.2598 20.0625 30.0469 20.4219 29.7578 20.793C29.4726 21.1602 28.9961 21.6582 28.3281 22.2871L26.8399 23.7285V23.7871H30.9062V25Z" fill="#172A41"/>
</g>
<defs>
<filter id="filter0_dd_1_964" x="0" y="0" width="56" height="56" filterUnits="userSpaceOnUse" color-interpolation-filters="sRGB">
<feFlood flood-opacity="0" result="BackgroundImageFix"/>
<feColorMatrix in="SourceAlpha" type="matrix" values="0 0 0 0 0 0 0 0 0 0 0 0 0 0 0 0 0 0 127 0" result="hardAlpha"/>
<feOffset dy="8"/>
<feGaussianBlur stdDeviation="6"/>
<feColorMatrix type="matrix" values="0 0 0 0 0.121569 0 0 0 0 0.203922 0 0 0 0 0.309804 0 0 0 0.2 0"/>
<feBlend mode="normal" in2="BackgroundImageFix" result="effect1_dropShadow_1_964"/>
<feColorMatrix in="SourceAlpha" type="matrix" values="0 0 0 0 0 0 0 0 0 0 0 0 0 0 0 0 0 0 127 0" result="hardAlpha"/>
<feOffset/>
<feGaussianBlur stdDeviation="2"/>
<feColorMatrix type="matrix" values="0 0 0 0 0 0 0 0 0 0 0 0 0 0 0 0 0 0 0.15 0"/>
<feBlend mode="normal" in2="effect1_dropShadow_1_964" result="effect2_dropShadow_1_964"/>
<feBlend mode="normal" in="SourceGraphic" in2="effect2_dropShadow_1_964" result="shape"/>
</filter>
</defs>
</svg>
