<svg width="70" height="90" viewBox="0 0 70 90" fill="none" xmlns="http://www.w3.org/2000/svg">
<g filter="url(#filter0_dd_1_978)">
<rect x="12" y="4" width="45.9998" height="20" rx="2" fill="white"/>
<path d="M17.9727 18V9.43359H19.4902L22.9824 16.0488H23.0586C23.0429 15.8496 23.0254 15.6152 23.0058 15.3457C22.9902 15.0723 22.9765 14.7949 22.9648 14.5137C22.9531 14.2324 22.9472 13.9824 22.9472 13.7637V9.43359H24.1718V18H22.6718L19.1445 11.3496H19.0801C19.0957 11.5645 19.1113 11.8145 19.1269 12.0996C19.1465 12.3848 19.1621 12.6699 19.1738 12.9551C19.1894 13.2402 19.1973 13.4922 19.1973 13.7109V18H17.9727ZM25.1679 18V17.0625H28.5605V18H25.1679ZM26.8554 16.3945C26.4921 16.3945 26.1699 16.3145 25.8886 16.1543C25.6074 15.9902 25.3867 15.752 25.2265 15.4395C25.0664 15.127 24.9863 14.75 24.9863 14.3086C24.9863 13.6445 25.1562 13.1328 25.496 12.7734C25.8359 12.4141 26.3007 12.2344 26.8906 12.2344C27.2499 12.2344 27.5702 12.3164 27.8515 12.4805C28.1327 12.6406 28.3554 12.875 28.5195 13.1836C28.6835 13.4883 28.7656 13.8633 28.7656 14.3086C28.7656 14.9727 28.5937 15.4863 28.2499 15.8496C27.9062 16.2129 27.4413 16.3945 26.8554 16.3945ZM26.873 15.5859C27.1894 15.5859 27.4199 15.4785 27.5644 15.2637C27.7089 15.0449 27.7812 14.7266 27.7812 14.3086C27.7812 13.8867 27.7089 13.5723 27.5644 13.3652C27.4238 13.1543 27.1933 13.0488 26.873 13.0488C26.5527 13.0488 26.3183 13.1543 26.1699 13.3652C26.0253 13.5723 25.9531 13.8867 25.9531 14.3086C25.9531 14.7266 26.0253 15.0449 26.1699 15.2637C26.3183 15.4785 26.5527 15.5859 26.873 15.5859ZM38.41 11.3906C38.41 11.7773 38.3319 12.1133 38.1757 12.3984C38.0194 12.6836 37.8046 12.918 37.5311 13.1016C37.2616 13.2812 36.9491 13.4102 36.5936 13.4883V13.5293C37.2772 13.6152 37.7928 13.8301 38.1405 14.1738C38.4921 14.5176 38.6678 14.9727 38.6678 15.5391C38.6678 16.0352 38.5487 16.4785 38.3104 16.8691C38.0721 17.2559 37.7069 17.5605 37.2147 17.7832C36.7225 18.0059 36.0897 18.1172 35.3163 18.1172C34.8515 18.1172 34.4198 18.0801 34.0214 18.0059C33.6269 17.9316 33.2519 17.8125 32.8964 17.6484V16.4238C33.2597 16.6035 33.6464 16.7422 34.0565 16.8398C34.4667 16.9375 34.8554 16.9863 35.2225 16.9863C35.9374 16.9863 36.4471 16.8535 36.7518 16.5879C37.0565 16.3184 37.2089 15.9473 37.2089 15.4746C37.2089 15.1699 37.1288 14.9199 36.9686 14.7246C36.8124 14.5293 36.5682 14.3828 36.2362 14.2852C35.9081 14.1875 35.4843 14.1387 34.9647 14.1387H34.2089V13.0312H34.9706C35.4667 13.0312 35.8651 12.9727 36.1659 12.8555C36.4667 12.7344 36.6835 12.5684 36.8163 12.3574C36.953 12.1465 37.0214 11.9004 37.0214 11.6191C37.0214 11.252 36.9022 10.9668 36.6639 10.7637C36.4257 10.5566 36.0722 10.4531 35.6034 10.4531C35.3143 10.4531 35.0507 10.4863 34.8124 10.5527C34.578 10.6191 34.3612 10.7031 34.162 10.8047C33.9628 10.9062 33.7733 11.0156 33.5937 11.1328L32.9315 10.1777C33.2558 9.93555 33.6425 9.73047 34.0917 9.5625C34.5409 9.39453 35.0643 9.31055 35.662 9.31055C36.5409 9.31055 37.2186 9.5 37.6952 9.87891C38.1717 10.2539 38.41 10.7578 38.41 11.3906ZM45.9158 16.1191H44.7557V18H43.3963V16.1191H39.4999V15.0762L43.4139 9.41016H44.7557V14.9766H45.9158V16.1191ZM43.3963 14.9766V12.8496C43.3963 12.6738 43.3983 12.4961 43.4022 12.3164C43.41 12.1328 43.4178 11.957 43.4256 11.7891C43.4334 11.6211 43.4412 11.4668 43.4491 11.3262C43.4569 11.1816 43.4627 11.0625 43.4666 10.9688H43.4198C43.3455 11.125 43.2635 11.2852 43.1737 11.4492C43.0838 11.6094 42.9881 11.7656 42.8866 11.918L40.7772 14.9766H43.3963ZM49.5838 12.6445C50.1346 12.6445 50.6189 12.7441 51.0369 12.9434C51.4588 13.1387 51.7869 13.4277 52.0213 13.8105C52.2556 14.1895 52.3728 14.6543 52.3728 15.2051C52.3728 15.8066 52.2459 16.3262 51.992 16.7637C51.7381 17.1973 51.365 17.5312 50.8728 17.7656C50.3807 18 49.7811 18.1172 49.074 18.1172C48.6248 18.1172 48.2049 18.0781 47.8143 18C47.4276 17.9219 47.0936 17.8047 46.8123 17.6484V16.4062C47.1053 16.5703 47.4568 16.7051 47.867 16.8105C48.2772 16.9121 48.6697 16.9629 49.0447 16.9629C49.4432 16.9629 49.785 16.9043 50.0701 16.7871C50.3553 16.6699 50.574 16.4902 50.7264 16.248C50.8826 16.0059 50.9607 15.6992 50.9607 15.3281C50.9607 14.8359 50.8025 14.457 50.4861 14.1914C50.1736 13.9219 49.6834 13.7871 49.0154 13.7871C48.7811 13.7871 48.5311 13.8086 48.2654 13.8516C48.0037 13.8906 47.785 13.9336 47.6092 13.9805L47.0057 13.623L47.3279 9.43359H51.781V10.6465H48.5408L48.3533 12.7793C48.494 12.748 48.6619 12.7188 48.8572 12.6914C49.0525 12.6602 49.2947 12.6445 49.5838 12.6445Z" fill="#DF7100"/>
</g>
<g filter="url(#filter1_dd_1_978)">
<path fill-rule="evenodd" clip-rule="evenodd" d="M45.0985 56.4111C48.6998 53.4772 50.9999 49.0072 50.9999 44C50.9999 35.1634 43.8364 28 34.9999 28C26.1633 28 18.9999 35.1634 18.9999 44C18.9999 49.0096 21.3022 53.4814 24.9064 56.4152H24.8944C28.0366 59.4021 30.9894 64.0794 33.119 68.3917C33.3978 69.1606 34.1347 69.71 34.9999 69.71C35.8684 69.71 36.6076 69.1565 36.8839 68.3829C39.0132 64.073 41.9647 59.3964 45.1053 56.4111H45.0985Z" fill="white"/>
<path fill-rule="evenodd" clip-rule="evenodd" d="M43.8393 54.9014C43.8383 54.9014 43.8378 54.9001 43.8386 54.8994C46.9883 52.3323 48.9999 48.4219 48.9999 44.0417C48.9999 36.3098 42.7319 30.0417 34.9999 30.0417C27.2679 30.0417 20.9999 36.3098 20.9999 44.0417C20.9999 48.4231 23.0125 52.3344 26.1638 54.9016C26.1652 54.9027 26.1644 54.905 26.1625 54.905V54.905C26.1607 54.905 26.1599 54.9072 26.1612 54.9084C29.8545 58.42 32.872 62.6359 34.9983 67.3407C34.9987 67.3415 35 67.3413 35 67.3403V67.3403C37.1267 62.6335 40.1452 58.4161 43.8401 54.9034C43.8409 54.9027 43.8404 54.9014 43.8393 54.9014V54.9014Z" fill="#FFEDD8"/>
<g clip-path="url(#clip0_1_978)">
<path fill-rule="evenodd" clip-rule="evenodd" d="M26.4999 46.7991C26.4998 46.0465 26.5003 45.0632 26.5024 43.9941L26.5081 41.198C26.5106 39.9399 27.1881 38.78 28.2827 38.1599L30.7655 36.7532L33.2806 35.3282C34.3509 34.7218 35.661 34.7218 36.7313 35.3282L41.7264 38.1584C42.8231 38.7798 43.501 39.943 43.501 41.2036L43.501 46.7964C43.501 48.057 42.8231 49.2202 41.7264 49.8416L39.2464 51.2467L36.731 52.6719C35.6609 53.2783 34.3511 53.2784 33.2809 52.6723L30.7826 51.2575C30.2525 50.9573 29.7444 50.6702 29.2824 50.4096C28.9172 50.2036 28.5808 50.0141 28.285 49.8477C27.1847 49.2284 26.5001 48.0651 26.4999 46.7991ZM28.5024 43.9981C28.5003 45.0655 28.4998 46.0473 28.4999 46.7987C28.5 47.339 28.792 47.838 29.2659 48.1047C29.3732 48.1651 29.4859 48.2285 29.6034 48.2947L38.9908 38.9072L35.7454 37.0683C35.2867 36.8084 34.7252 36.8084 34.2665 37.0683L29.2686 39.9C28.7995 40.1658 28.5091 40.6629 28.5081 41.202L28.5024 43.9981ZM40.7953 39.9312L31.4113 49.3152C31.5289 49.3817 31.648 49.4491 31.7682 49.5172L34.2664 50.932C34.7251 51.1917 35.2864 51.1917 35.7451 50.9318L40.7405 48.1015C41.2105 47.8352 41.501 47.3367 41.501 46.7964L41.501 41.2036C41.501 40.6847 41.233 40.2043 40.7953 39.9312Z" fill="#FF9D28"/>
</g>
</g>
<defs>
<filter id="filter0_dd_1_978" x="0" y="0" width="69.9998" height="44" filterUnits="userSpaceOnUse" color-interpolation-filters="sRGB">
<feFlood flood-opacity="0" result="BackgroundImageFix"/>
<feColorMatrix in="SourceAlpha" type="matrix" values="0 0 0 0 0 0 0 0 0 0 0 0 0 0 0 0 0 0 127 0" result="hardAlpha"/>
<feOffset dy="8"/>
<feGaussianBlur stdDeviation="6"/>
<feColorMatrix type="matrix" values="0 0 0 0 0.121569 0 0 0 0 0.203922 0 0 0 0 0.309804 0 0 0 0.1 0"/>
<feBlend mode="normal" in2="BackgroundImageFix" result="effect1_dropShadow_1_978"/>
<feColorMatrix in="SourceAlpha" type="matrix" values="0 0 0 0 0 0 0 0 0 0 0 0 0 0 0 0 0 0 127 0" result="hardAlpha"/>
<feOffset/>
<feGaussianBlur stdDeviation="1"/>
<feColorMatrix type="matrix" values="0 0 0 0 0 0 0 0 0 0 0 0 0 0 0 0 0 0 0.1 0"/>
<feBlend mode="normal" in2="effect1_dropShadow_1_978" result="effect2_dropShadow_1_978"/>
<feBlend mode="normal" in="SourceGraphic" in2="effect2_dropShadow_1_978" result="shape"/>
</filter>
<filter id="filter1_dd_1_978" x="6.99988" y="24" width="56" height="66" filterUnits="userSpaceOnUse" color-interpolation-filters="sRGB">
<feFlood flood-opacity="0" result="BackgroundImageFix"/>
<feColorMatrix in="SourceAlpha" type="matrix" values="0 0 0 0 0 0 0 0 0 0 0 0 0 0 0 0 0 0 127 0" result="hardAlpha"/>
<feOffset dy="8"/>
<feGaussianBlur stdDeviation="6"/>
<feColorMatrix type="matrix" values="0 0 0 0 0.121569 0 0 0 0 0.203922 0 0 0 0 0.309804 0 0 0 0.2 0"/>
<feBlend mode="normal" in2="BackgroundImageFix" result="effect1_dropShadow_1_978"/>
<feColorMatrix in="SourceAlpha" type="matrix" values="0 0 0 0 0 0 0 0 0 0 0 0 0 0 0 0 0 0 127 0" result="hardAlpha"/>
<feOffset/>
<feGaussianBlur stdDeviation="2"/>
<feColorMatrix type="matrix" values="0 0 0 0 0 0 0 0 0 0 0 0 0 0 0 0 0 0 0.15 0"/>
<feBlend mode="normal" in2="effect1_dropShadow_1_978" result="effect2_dropShadow_1_978"/>
<feBlend mode="normal" in="SourceGraphic" in2="effect2_dropShadow_1_978" result="shape"/>
</filter>
<clipPath id="clip0_1_978">
<rect width="20" height="20" fill="white" transform="translate(44.9999 54) rotate(180)"/>
</clipPath>
</defs>
</svg>
